# xmcd
#
# Track frame offsets: 
#        150
#        17825
#        37798
#
# Disc length: 684 seconds
#
# Revision: 0
# Processed by: cddbd v1.5.2PL0 Copyright (c) Steve Scherf et al.
# Submitted via: ExactAudioCopy v0.99pb5
#
DISCID=1602aa03
DTITLE=Garth Brooks - To make you feel my love
DYEAR=1998
DGENRE=Country
TTITLE0=To make you feel my love
TTITLE1=Two Pina Coladas (live)
TTITLE2=To make you feel my love (live)
EXTD=
EXTT0=
EXTT1=
EXTT2=
PLAYORDER=
